<svg width="205" height="30" viewBox="0 0 205 30" fill="none" xmlns="http://www.w3.org/2000/svg">
<path d="M0.744 14.36C0.744 13.32 0.928 12.296 1.296 11.288C1.68 10.28 2.232 9.368 2.952 8.552C3.672 7.736 4.552 7.088 5.592 6.608C6.632 6.112 7.816 5.864 9.144 5.864C10.696 5.864 12.048 6.208 13.2 6.896C14.352 7.584 15.208 8.48 15.768 9.584L13.224 11.336C12.936 10.696 12.56 10.192 12.096 9.824C11.632 9.456 11.128 9.192 10.584 9.032C10.056 8.872 9.544 8.792 9.048 8.792C8.216 8.792 7.488 8.96 6.864 9.296C6.256 9.632 5.744 10.072 5.328 10.616C4.912 11.16 4.6 11.768 4.392 12.44C4.2 13.112 4.104 13.784 4.104 14.456C4.104 15.464 4.312 16.408 4.728 17.288C5.144 18.152 5.728 18.856 6.48 19.4C7.232 19.944 8.104 20.216 9.096 20.216C9.608 20.216 10.136 20.128 10.68 19.952C11.24 19.776 11.752 19.496 12.216 19.112C12.68 18.728 13.04 18.232 13.296 17.624L16.008 19.184C15.656 20.032 15.104 20.752 14.352 21.344C13.6 21.92 12.752 22.368 11.808 22.688C10.864 22.992 9.928 23.144 9 23.144C7.784 23.144 6.672 22.896 5.664 22.4C4.672 21.888 3.808 21.216 3.072 20.384C2.336 19.536 1.76 18.592 1.344 17.552C0.944 16.496 0.744 15.432 0.744 14.36ZM25.4051 13.208C24.4291 13.208 23.5571 13.4 22.7891 13.784C22.0211 14.152 21.4691 14.688 21.1331 15.392V23H17.9171V10.424H20.8691V13.112C21.3011 12.248 21.8611 11.568 22.5491 11.072C23.2531 10.576 23.9891 10.304 24.7571 10.256C25.0931 10.256 25.3091 10.264 25.4051 10.28V13.208ZM27.4624 25.448C28.0544 25.608 28.5344 25.688 28.9024 25.688C29.3344 25.688 29.6784 25.504 29.9344 25.136C30.2064 24.784 30.5104 24.072 30.8464 23L25.8784 10.424H29.2144L32.5984 19.712L35.5744 10.424H38.6464L33.3664 25.496C33.0784 26.36 32.5584 27.072 31.8064 27.632C31.0704 28.208 30.1584 28.496 29.0704 28.496C28.5424 28.496 28.0064 28.408 27.4624 28.232V25.448ZM47.9297 23.24C46.9377 23.24 46.0737 23.016 45.3377 22.568C44.6017 22.12 44.0257 21.528 43.6097 20.792V28.112H40.3937V10.424H43.2017V12.584C43.6657 11.848 44.2657 11.272 45.0017 10.856C45.7537 10.424 46.6017 10.208 47.5457 10.208C48.6817 10.208 49.6897 10.504 50.5697 11.096C51.4497 11.672 52.1457 12.456 52.6577 13.448C53.1697 14.424 53.4257 15.504 53.4257 16.688C53.4257 17.92 53.1857 19.032 52.7057 20.024C52.2417 21 51.5937 21.784 50.7617 22.376C49.9457 22.952 49.0017 23.24 47.9297 23.24ZM46.8497 20.504C47.5057 20.504 48.0737 20.328 48.5537 19.976C49.0497 19.608 49.4337 19.136 49.7057 18.56C49.9937 17.968 50.1377 17.344 50.1377 16.688C50.1377 15.984 49.9857 15.352 49.6817 14.792C49.3777 14.216 48.9617 13.768 48.4337 13.448C47.9217 13.112 47.3297 12.944 46.6577 12.944C46.0497 12.944 45.4417 13.144 44.8337 13.544C44.2257 13.944 43.8177 14.448 43.6097 15.056V18.008C43.8977 18.712 44.3377 19.304 44.9297 19.784C45.5217 20.264 46.1617 20.504 46.8497 20.504ZM62.9766 22.352C62.5446 22.544 62.0086 22.736 61.3686 22.928C60.7446 23.12 60.0966 23.216 59.4246 23.216C58.8326 23.216 58.2886 23.112 57.7926 22.904C57.2966 22.696 56.8966 22.368 56.5926 21.92C56.3046 21.456 56.1606 20.856 56.1606 20.12V12.896H54.5046V10.424H56.1606V6.344H59.3766V10.424H62.0166V12.896H59.3766V19.04C59.3766 19.472 59.4886 19.784 59.7126 19.976C59.9526 20.168 60.2406 20.264 60.5766 20.264C60.9126 20.264 61.2406 20.208 61.5606 20.096C61.8806 19.984 62.1366 19.888 62.3286 19.808L62.9766 22.352ZM70.2954 23.24C68.9194 23.24 67.7354 22.944 66.7434 22.352C65.7674 21.744 65.0154 20.944 64.4874 19.952C63.9594 18.96 63.6954 17.888 63.6954 16.736C63.6954 15.568 63.9594 14.488 64.4874 13.496C65.0314 12.504 65.7914 11.712 66.7674 11.12C67.7594 10.512 68.9354 10.208 70.2954 10.208C71.6554 10.208 72.8234 10.512 73.7994 11.12C74.7914 11.712 75.5514 12.504 76.0794 13.496C76.6074 14.488 76.8714 15.568 76.8714 16.736C76.8714 17.888 76.6074 18.96 76.0794 19.952C75.5514 20.944 74.7914 21.744 73.7994 22.352C72.8234 22.944 71.6554 23.24 70.2954 23.24ZM67.0074 16.736C67.0074 17.472 67.1514 18.128 67.4394 18.704C67.7274 19.264 68.1194 19.704 68.6154 20.024C69.1114 20.344 69.6714 20.504 70.2954 20.504C70.9034 20.504 71.4554 20.344 71.9514 20.024C72.4474 19.688 72.8394 19.24 73.1274 18.68C73.4314 18.104 73.5834 17.448 73.5834 16.712C73.5834 15.992 73.4314 15.352 73.1274 14.792C72.8394 14.216 72.4474 13.768 71.9514 13.448C71.4554 13.112 70.9034 12.944 70.2954 12.944C69.6714 12.944 69.1114 13.112 68.6154 13.448C68.1194 13.768 67.7274 14.216 67.4394 14.792C67.1514 15.352 67.0074 16 67.0074 16.736Z" fill="white"/>
<path d="M78.3221 14.36C78.3221 13.32 78.5061 12.296 78.8741 11.288C79.2581 10.28 79.8101 9.368 80.5301 8.552C81.2501 7.736 82.1301 7.088 83.1701 6.608C84.2101 6.112 85.3941 5.864 86.7221 5.864C88.2741 5.864 89.6261 6.208 90.7781 6.896C91.9301 7.584 92.7861 8.48 93.3461 9.584L90.8021 11.336C90.5141 10.696 90.1381 10.192 89.6741 9.824C89.2101 9.456 88.7061 9.192 88.1621 9.032C87.6341 8.872 87.1221 8.792 86.6261 8.792C85.7941 8.792 85.0661 8.96 84.4421 9.296C83.8341 9.632 83.3221 10.072 82.9061 10.616C82.4901 11.16 82.1781 11.768 81.9701 12.44C81.7781 13.112 81.6821 13.784 81.6821 14.456C81.6821 15.464 81.8901 16.408 82.3061 17.288C82.7221 18.152 83.3061 18.856 84.0581 19.4C84.8101 19.944 85.6821 20.216 86.6741 20.216C87.1861 20.216 87.7141 20.128 88.2581 19.952C88.8181 19.776 89.3301 19.496 89.7941 19.112C90.2581 18.728 90.6181 18.232 90.8741 17.624L93.5861 19.184C93.2341 20.032 92.6821 20.752 91.9301 21.344C91.1781 21.92 90.3301 22.368 89.3861 22.688C88.4421 22.992 87.5061 23.144 86.5781 23.144C85.3621 23.144 84.2501 22.896 83.2421 22.4C82.2501 21.888 81.3861 21.216 80.6501 20.384C79.9141 19.536 79.3381 18.592 78.9221 17.552C78.5221 16.496 78.3221 15.432 78.3221 14.36ZM94.6313 19.28C94.6313 18.464 94.8553 17.752 95.3033 17.144C95.7673 16.52 96.4073 16.04 97.2233 15.704C98.0393 15.368 98.9753 15.2 100.031 15.2C100.559 15.2 101.095 15.248 101.639 15.344C102.183 15.424 102.655 15.544 103.055 15.704V15.032C103.055 14.232 102.815 13.616 102.335 13.184C101.871 12.752 101.175 12.536 100.247 12.536C99.5593 12.536 98.9033 12.656 98.2793 12.896C97.6553 13.136 96.9993 13.488 96.3113 13.952L95.2793 11.84C96.1113 11.296 96.9593 10.888 97.8233 10.616C98.7033 10.344 99.6233 10.208 100.583 10.208C102.375 10.208 103.767 10.656 104.759 11.552C105.767 12.448 106.271 13.728 106.271 15.392V19.4C106.271 19.752 106.327 20 106.439 20.144C106.551 20.272 106.751 20.352 107.039 20.384V23C106.751 23.064 106.487 23.104 106.247 23.12C106.023 23.152 105.831 23.168 105.671 23.168C105.031 23.168 104.543 23.024 104.207 22.736C103.871 22.448 103.671 22.096 103.607 21.68L103.535 21.032C102.975 21.752 102.287 22.304 101.471 22.688C100.671 23.056 99.8473 23.24 98.9993 23.24C98.1513 23.24 97.3993 23.072 96.7433 22.736C96.0873 22.384 95.5673 21.912 95.1833 21.32C94.8153 20.712 94.6313 20.032 94.6313 19.28ZM102.455 19.928C102.855 19.544 103.055 19.176 103.055 18.824V17.552C102.223 17.216 101.383 17.048 100.535 17.048C99.6873 17.048 98.9993 17.232 98.4713 17.6C97.9433 17.952 97.6793 18.424 97.6793 19.016C97.6793 19.496 97.8713 19.928 98.2553 20.312C98.6393 20.696 99.1913 20.888 99.9113 20.888C100.391 20.888 100.855 20.8 101.303 20.624C101.767 20.448 102.151 20.216 102.455 19.928ZM116.813 23.24C115.821 23.24 114.957 23.016 114.221 22.568C113.485 22.12 112.909 21.528 112.493 20.792V28.112H109.277V10.424H112.085V12.584C112.549 11.848 113.149 11.272 113.885 10.856C114.637 10.424 115.485 10.208 116.429 10.208C117.565 10.208 118.573 10.504 119.453 11.096C120.333 11.672 121.029 12.456 121.541 13.448C122.053 14.424 122.309 15.504 122.309 16.688C122.309 17.92 122.069 19.032 121.589 20.024C121.125 21 120.477 21.784 119.645 22.376C118.829 22.952 117.885 23.24 116.813 23.24ZM115.733 20.504C116.389 20.504 116.957 20.328 117.437 19.976C117.933 19.608 118.317 19.136 118.589 18.56C118.877 17.968 119.021 17.344 119.021 16.688C119.021 15.984 118.869 15.352 118.565 14.792C118.261 14.216 117.845 13.768 117.317 13.448C116.805 13.112 116.213 12.944 115.541 12.944C114.933 12.944 114.325 13.144 113.717 13.544C113.109 13.944 112.701 14.448 112.493 15.056V18.008C112.781 18.712 113.221 19.304 113.812 19.784C114.405 20.264 115.045 20.504 115.733 20.504Z" fill="#0FAE96"/>
</svg>
